<svg width="22" height="24" viewBox="0 0 22 24" fill="none" xmlns="http://www.w3.org/2000/svg">
<path d="M17.4165 11H11.9165V5C11.9165 4.73478 11.8199 4.48043 11.648 4.29289C11.4761 4.10536 11.243 4 10.9998 4C10.7567 4 10.5236 4.10536 10.3517 4.29289C10.1797 4.48043 10.0832 4.73478 10.0832 5V11H4.58317C4.34006 11 4.1069 11.1054 3.93499 11.2929C3.76308 11.4804 3.6665 11.7348 3.6665 12C3.6665 12.2652 3.76308 12.5196 3.93499 12.7071C4.1069 12.8946 4.34006 13 4.58317 13H10.0832V19C10.0832 19.2652 10.1797 19.5196 10.3517 19.7071C10.5236 19.8946 10.7567 20 10.9998 20C11.243 20 11.4761 19.8946 11.648 19.7071C11.8199 19.5196 11.9165 19.2652 11.9165 19V13H17.4165C17.6596 13 17.8928 12.8946 18.0647 12.7071C18.2366 12.5196 18.3332 12.2652 18.3332 12C18.3332 11.7348 18.2366 11.4804 18.0647 11.2929C17.8928 11.1054 17.6596 11 17.4165 11Z" fill="#B2BACE"/>
</svg>
