<svg width="16" height="16" viewBox="0 0 16 16" fill="none" xmlns="http://www.w3.org/2000/svg">
<path d="M14.6667 8H10.6667L9.33337 10H6.66671L5.33337 8H1.33337" stroke="#23344D" stroke-width="1.3" stroke-linecap="round" stroke-linejoin="round"/>
<path d="M3.63337 3.40666L1.33337 8V12C1.33337 12.3536 1.47385 12.6928 1.7239 12.9428C1.97395 13.1929 2.31309 13.3333 2.66671 13.3333H13.3334C13.687 13.3333 14.0261 13.1929 14.2762 12.9428C14.5262 12.6928 14.6667 12.3536 14.6667 12V8L12.3667 3.40666C12.2563 3.18452 12.0862 2.99758 11.8753 2.86685C11.6645 2.73612 11.4214 2.6668 11.1734 2.66666H4.82671C4.57865 2.6668 4.33555 2.73612 4.12474 2.86685C3.91392 2.99758 3.74376 3.18452 3.63337 3.40666V3.40666Z" stroke="#23344D" stroke-width="1.3" stroke-linecap="round" stroke-linejoin="round"/>
</svg>
