<svg width="53" height="44" viewBox="0 0 53 44" fill="none" xmlns="http://www.w3.org/2000/svg">
<path d="M33.5 11H27.5V5C27.5 4.73478 27.3946 4.48043 27.2071 4.29289C27.0196 4.10536 26.7652 4 26.5 4C26.2348 4 25.9804 4.10536 25.7929 4.29289C25.6054 4.48043 25.5 4.73478 25.5 5V11H19.5C19.2348 11 18.9804 11.1054 18.7929 11.2929C18.6054 11.4804 18.5 11.7348 18.5 12C18.5 12.2652 18.6054 12.5196 18.7929 12.7071C18.9804 12.8946 19.2348 13 19.5 13H25.5V19C25.5 19.2652 25.6054 19.5196 25.7929 19.7071C25.9804 19.8946 26.2348 20 26.5 20C26.7652 20 27.0196 19.8946 27.2071 19.7071C27.3946 19.5196 27.5 19.2652 27.5 19V13H33.5C33.7652 13 34.0196 12.8946 34.2071 12.7071C34.3946 12.5196 34.5 12.2652 34.5 12C34.5 11.7348 34.3946 11.4804 34.2071 11.2929C34.0196 11.1054 33.7652 11 33.5 11Z" fill="#8997AB"/>
<path d="M2.15128 42H0.745028L3.3054 34.7273H4.93182L7.49574 42H6.08949L4.14702 36.2188H4.0902L2.15128 42ZM2.19744 39.1484H6.03267V40.2067H2.19744V39.1484ZM10.9181 42H8.45366V34.7273H10.9679C11.6899 34.7273 12.3102 34.8729 12.8287 35.1641C13.3495 35.4529 13.7496 35.8684 14.0289 36.4105C14.3083 36.9527 14.448 37.6013 14.448 38.3565C14.448 39.1141 14.3071 39.7652 14.0254 40.3097C13.746 40.8542 13.3424 41.272 12.8145 41.5632C12.2889 41.8544 11.6568 42 10.9181 42ZM9.77113 40.8601H10.8542C11.3609 40.8601 11.7834 40.7678 12.122 40.5831C12.4605 40.3961 12.715 40.1179 12.8855 39.7486C13.0559 39.3769 13.1412 38.9129 13.1412 38.3565C13.1412 37.8002 13.0559 37.3385 12.8855 36.9716C12.715 36.6023 12.4629 36.3265 12.1291 36.1442C11.7976 35.9595 11.3857 35.8672 10.8933 35.8672H9.77113V40.8601ZM18.1642 42H15.6998V34.7273H18.214C18.936 34.7273 19.5563 34.8729 20.0748 35.1641C20.5956 35.4529 20.9957 35.8684 21.275 36.4105C21.5544 36.9527 21.6941 37.6013 21.6941 38.3565C21.6941 39.1141 21.5532 39.7652 21.2715 40.3097C20.9921 40.8542 20.5885 41.272 20.0605 41.5632C19.535 41.8544 18.9029 42 18.1642 42ZM17.0172 40.8601H18.1003C18.6069 40.8601 19.0295 40.7678 19.3681 40.5831C19.7066 40.3961 19.9611 40.1179 20.1316 39.7486C20.302 39.3769 20.3873 38.9129 20.3873 38.3565C20.3873 37.8002 20.302 37.3385 20.1316 36.9716C19.9611 36.6023 19.709 36.3265 19.3752 36.1442C19.0437 35.9595 18.6318 35.8672 18.1394 35.8672H17.0172V40.8601ZM25.4263 42V34.7273H28.1536C28.7123 34.7273 29.181 34.8314 29.5598 35.0398C29.941 35.2481 30.2286 35.5346 30.4228 35.8991C30.6193 36.2614 30.7175 36.6733 30.7175 37.1349C30.7175 37.6013 30.6193 38.0156 30.4228 38.3778C30.2263 38.7401 29.9363 39.0253 29.5527 39.2337C29.1692 39.4396 28.6969 39.5426 28.1358 39.5426H26.3283V38.4595H27.9583C28.285 38.4595 28.5525 38.4027 28.7608 38.2891C28.9692 38.1754 29.123 38.0192 29.2225 37.8203C29.3243 37.6214 29.3752 37.393 29.3752 37.1349C29.3752 36.8769 29.3243 36.6496 29.2225 36.4531C29.123 36.2566 28.968 36.1039 28.7573 35.995C28.5489 35.8838 28.2802 35.8281 27.9512 35.8281H26.7438V42H25.4263ZM38.3604 38.3636C38.3604 39.1473 38.2137 39.8184 37.9201 40.3771C37.6289 40.9335 37.2312 41.3596 36.7269 41.6555C36.225 41.9515 35.6557 42.0994 35.0188 42.0994C34.382 42.0994 33.8114 41.9515 33.3072 41.6555C32.8053 41.3572 32.4076 40.9299 32.114 40.3736C31.8228 39.8149 31.6772 39.1449 31.6772 38.3636C31.6772 37.58 31.8228 36.91 32.114 36.3537C32.4076 35.795 32.8053 35.3677 33.3072 35.0717C33.8114 34.7758 34.382 34.6278 35.0188 34.6278C35.6557 34.6278 36.225 34.7758 36.7269 35.0717C37.2312 35.3677 37.6289 35.795 37.9201 36.3537C38.2137 36.91 38.3604 37.58 38.3604 38.3636ZM37.0359 38.3636C37.0359 37.812 36.9495 37.3468 36.7766 36.968C36.6062 36.5869 36.3694 36.2992 36.0664 36.1051C35.7634 35.9086 35.4142 35.8104 35.0188 35.8104C34.6235 35.8104 34.2743 35.9086 33.9712 36.1051C33.6682 36.2992 33.4303 36.5869 33.2575 36.968C33.087 37.3468 33.0018 37.812 33.0018 38.3636C33.0018 38.9152 33.087 39.3816 33.2575 39.7628C33.4303 40.1416 33.6682 40.4292 33.9712 40.6257C34.2743 40.8198 34.6235 40.9169 35.0188 40.9169C35.4142 40.9169 35.7634 40.8198 36.0664 40.6257C36.3694 40.4292 36.6062 40.1416 36.7766 39.7628C36.9495 39.3816 37.0359 38.9152 37.0359 38.3636ZM46.1046 38.3636C46.1046 39.1473 45.9578 39.8184 45.6642 40.3771C45.373 40.9335 44.9753 41.3596 44.4711 41.6555C43.9692 41.9515 43.3998 42.0994 42.763 42.0994C42.1261 42.0994 41.5556 41.9515 41.0513 41.6555C40.5494 41.3572 40.1517 40.9299 39.8581 40.3736C39.5669 39.8149 39.4213 39.1449 39.4213 38.3636C39.4213 37.58 39.5669 36.91 39.8581 36.3537C40.1517 35.795 40.5494 35.3677 41.0513 35.0717C41.5556 34.7758 42.1261 34.6278 42.763 34.6278C43.3998 34.6278 43.9692 34.7758 44.4711 35.0717C44.9753 35.3677 45.373 35.795 45.6642 36.3537C45.9578 36.91 46.1046 37.58 46.1046 38.3636ZM44.78 38.3636C44.78 37.812 44.6936 37.3468 44.5208 36.968C44.3503 36.5869 44.1136 36.2992 43.8105 36.1051C43.5075 35.9086 43.1583 35.8104 42.763 35.8104C42.3676 35.8104 42.0184 35.9086 41.7154 36.1051C41.4123 36.2992 41.1744 36.5869 41.0016 36.968C40.8311 37.3468 40.7459 37.812 40.7459 38.3636C40.7459 38.9152 40.8311 39.3816 41.0016 39.7628C41.1744 40.1416 41.4123 40.4292 41.7154 40.6257C42.0184 40.8198 42.3676 40.9169 42.763 40.9169C43.1583 40.9169 43.5075 40.8198 43.8105 40.6257C44.1136 40.4292 44.3503 40.1416 44.5208 39.7628C44.6936 39.3816 44.78 38.9152 44.78 38.3636ZM47.3501 42V34.7273H48.6676V40.8956H51.8707V42H47.3501Z" fill="#8997AB"/>
</svg>
