<svg width="91" height="35" viewBox="0 0 91 35" fill="none" xmlns="http://www.w3.org/2000/svg">
<rect y="7.5" width="91" height="4" rx="2" fill="#E1EBF8"/>
<rect y="7.5" width="49" height="4" rx="2" fill="#CA715E"/>
<path d="M6.69389 23.7273V31H5.52202L2.09517 26.0462H2.0348V31H0.71733V23.7273H1.89631L5.3196 28.6847H5.38352V23.7273H6.69389ZM14.628 27.3636C14.628 28.1473 14.4812 28.8184 14.1877 29.3771C13.8965 29.9335 13.4988 30.3596 12.9945 30.6555C12.4926 30.9515 11.9232 31.0994 11.2864 31.0994C10.6496 31.0994 10.079 30.9515 9.57475 30.6555C9.07286 30.3572 8.67513 29.9299 8.38157 29.3736C8.09038 28.8149 7.94478 28.1449 7.94478 27.3636C7.94478 26.58 8.09038 25.91 8.38157 25.3537C8.67513 24.795 9.07286 24.3677 9.57475 24.0717C10.079 23.7758 10.6496 23.6278 11.2864 23.6278C11.9232 23.6278 12.4926 23.7758 12.9945 24.0717C13.4988 24.3677 13.8965 24.795 14.1877 25.3537C14.4812 25.91 14.628 26.58 14.628 27.3636ZM13.3034 27.3636C13.3034 26.812 13.217 26.3468 13.0442 25.968C12.8738 25.5869 12.637 25.2992 12.334 25.1051C12.031 24.9086 11.6818 24.8104 11.2864 24.8104C10.891 24.8104 10.5418 24.9086 10.2388 25.1051C9.93578 25.2992 9.69786 25.5869 9.52504 25.968C9.35458 26.3468 9.26935 26.812 9.26935 27.3636C9.26935 27.9152 9.35458 28.3816 9.52504 28.7628C9.69786 29.1416 9.93578 29.4292 10.2388 29.6257C10.5418 29.8198 10.891 29.9169 11.2864 29.9169C11.6818 29.9169 12.031 29.8198 12.334 29.6257C12.637 29.4292 12.8738 29.1416 13.0442 28.7628C13.217 28.3816 13.3034 27.9152 13.3034 27.3636ZM15.2317 24.8317V23.7273H21.0343V24.8317H18.7864V31H17.4796V24.8317H15.2317ZM24.1362 23.7273H25.6241L27.4032 26.9446H27.4743L29.2534 23.7273H30.7413L28.0957 28.2869V31H26.7818V28.2869L24.1362 23.7273ZM31.6744 31V23.7273H36.4045V24.8317H32.9918V26.8061H36.1594V27.9105H32.9918V29.8956H36.4329V31H31.6744ZM37.429 24.8317V23.7273H43.2315V24.8317H40.9837V31H39.6768V24.8317H37.429ZM46.8306 31V23.7273H51.4897V24.8317H48.1481V26.8061H51.1701V27.9105H48.1481V31H46.8306ZM57.2745 23.7273H58.592V28.4787C58.592 28.9995 58.4689 29.4576 58.2227 29.853C57.9788 30.2483 57.6355 30.5573 57.1928 30.7798C56.7501 31 56.2328 31.1101 55.641 31.1101C55.0468 31.1101 54.5283 31 54.0856 30.7798C53.6429 30.5573 53.2996 30.2483 53.0558 29.853C52.8119 29.4576 52.69 28.9995 52.69 28.4787V23.7273H54.0075V28.3686C54.0075 28.6716 54.0737 28.9415 54.2063 29.1783C54.3413 29.415 54.5307 29.6009 54.7745 29.7358C55.0183 29.8684 55.3072 29.9347 55.641 29.9347C55.9748 29.9347 56.2636 29.8684 56.5075 29.7358C56.7537 29.6009 56.9431 29.415 57.0756 29.1783C57.2082 28.9415 57.2745 28.6716 57.2745 28.3686V23.7273ZM60.024 31V23.7273H61.3414V29.8956H64.5446V31H60.024ZM65.688 31V23.7273H67.0055V29.8956H70.2086V31H65.688Z" fill="#8997AB"/>
</svg>
